<?xml version="1.0" standalone="no"?>
<!DOCTYPE svg PUBLIC "-//W3C//DTD SVG 20010904//EN"
 "http://www.w3.org/TR/2001/REC-SVG-20010904/DTD/svg10.dtd">
<svg version="1.0" xmlns="http://www.w3.org/2000/svg"
 width="100.000000pt" height="100.000000pt" viewBox="0 0 100.000000 100.000000"
 preserveAspectRatio="xMidYMid meet">
<metadata>
Created by potrace 1.10, written by Peter Selinger 2001-2011
</metadata>
<g transform="translate(0.000000,100.000000) scale(0.100000,-0.100000)"
fill="#000000" stroke="none">
<path d="M234 952 c-6 -4 -16 -17 -23 -30 -18 -33 9 -72 48 -72 16 0 34 -7 41
-15 14 -17 13 -17 -56 -15 -28 1 -67 -5 -87 -14 -63 -26 -67 -46 -67 -305 0
-144 4 -239 11 -254 20 -43 65 -61 157 -62 45 0 82 -3 82 -6 0 -9 -27 -31 -54
-44 -13 -7 -21 -20 -21 -35 0 -20 5 -25 25 -25 19 0 26 6 28 25 2 14 15 37 30
52 25 27 28 28 141 28 l116 0 94 -75 c51 -41 97 -75 102 -75 9 0 18 43 21 109
3 41 6 46 34 53 16 4 41 19 55 34 24 25 24 26 27 269 l3 244 -35 38 -34 38
-94 3 c-70 3 -100 8 -117 21 -20 16 -22 20 -10 39 7 11 21 23 32 26 30 7 19
51 -13 51 -21 0 -26 -5 -28 -32 -5 -47 -21 -56 -77 -43 -61 14 -128 4 -184
-26 -52 -29 -76 -19 -67 27 9 48 -44 95 -80 71z m51 -52 c0 -18 -6 -26 -23
-28 -24 -4 -38 18 -28 44 3 9 15 14 28 12 17 -2 23 -10 23 -28z m298 -51 c49
-13 110 -68 136 -123 25 -50 28 -140 7 -190 -73 -175 -320 -195 -419 -34 -116
187 60 407 276 347z m-312 -118 c-40 -78 -23 -206 37 -273 12 -14 12 -21 2
-33 -10 -12 -17 -10 -51 17 -21 17 -39 39 -39 49 0 24 -30 33 -49 14 -19 -18
-6 -46 26 -55 10 -3 32 -15 48 -28 l28 -22 -21 -23 c-28 -29 -42 -70 -42 -118
0 -48 -19 -52 -61 -10 l-29 29 0 216 c0 225 5 255 44 275 24 12 119 19 124 9
2 -3 -6 -25 -17 -47z m609 23 l25 -24 0 -231 0 -231 -28 -24 c-15 -13 -39 -24
-51 -24 -21 0 -24 5 -24 38 -1 53 -18 91 -59 133 l-35 37 54 41 c30 23 64 41
76 41 12 0 26 9 32 20 8 15 6 24 -10 40 -23 23 -46 17 -56 -13 -7 -25 -50 -74
-77 -89 -15 -8 -13 0 9 38 38 64 41 169 6 227 -12 21 -22 41 -22 46 0 4 30 5
68 3 54 -3 72 -9 92 -28z m-489 -359 c33 -18 59 -25 101 -25 48 0 56 -3 51
-16 -4 -11 -13 -14 -31 -9 -23 6 -24 4 -12 -10 12 -14 12 -18 -1 -26 -8 -4
-23 -6 -33 -3 -15 5 -18 3 -12 -11 3 -10 1 -24 -5 -31 -9 -11 -8 -14 4 -14 8
0 17 6 20 13 3 9 8 8 22 -3 16 -14 17 -13 11 6 -8 25 14 47 38 38 9 -3 16 -2
16 4 0 6 -6 12 -12 15 -19 7 18 42 75 70 l48 25 32 -22 c52 -34 75 -95 79
-209 2 -53 0 -97 -5 -97 -4 0 -42 29 -85 65 l-77 65 -147 0 -146 0 5 40 c4 25
2 40 -5 40 -6 0 -12 -17 -14 -37 -3 -36 -5 -38 -40 -41 -36 -3 -38 -2 -38 28
0 33 19 83 43 115 15 20 16 20 39 -2 25 -24 48 -30 48 -14 0 5 -11 19 -25 30
-24 18 -25 20 -8 30 10 6 19 11 19 11 1 0 22 -11 45 -25z"/>
<path d="M569 806 c6 -7 9 -21 5 -30 -8 -22 9 -20 29 2 21 23 22 36 2 29 -8
-4 -17 -2 -20 3 -4 6 -11 10 -17 10 -7 0 -7 -5 1 -14z"/>
<path d="M613 766 c3 -8 0 -19 -6 -26 -10 -10 -8 -12 7 -6 12 4 23 2 27 -6 4
-7 11 -9 15 -5 4 4 3 12 -3 18 -6 6 -9 17 -7 23 2 6 -5 12 -17 13 -13 1 -19
-3 -16 -11z"/>
<path d="M345 705 c-34 -33 -34 -93 -2 -123 54 -51 141 -11 141 65 0 72 -89
109 -139 58z m52 -36 c8 -8 13 -8 17 0 10 16 26 13 26 -4 0 -8 -5 -15 -10 -15
-6 0 -5 -8 2 -20 15 -23 4 -38 -16 -21 -10 8 -16 9 -21 1 -9 -15 -35 -12 -35
4 0 8 6 17 13 20 10 5 10 7 0 12 -17 8 -17 34 0 34 7 0 18 -5 24 -11z"/>
<path d="M592 684 c-42 -29 -18 -104 35 -104 49 0 72 76 31 104 -12 9 -27 16
-33 16 -6 0 -21 -7 -33 -16z"/>
<path d="M600 520 c0 -8 -9 -10 -25 -6 -14 4 -25 2 -25 -4 0 -14 -27 -12 -34
3 -5 10 -7 10 -12 0 -3 -7 -12 -13 -19 -13 -7 0 -16 6 -18 13 -4 9 -8 9 -15
-2 -8 -11 -14 -12 -24 -3 -11 9 -32 10 -55 3 -2 -1 5 -9 15 -19 10 -11 21 -15
26 -10 17 14 36 9 36 -9 1 -17 1 -17 14 0 12 16 15 16 29 2 20 -19 27 -19 27
0 0 18 21 20 38 3 9 -9 12 -9 12 1 0 8 8 12 23 9 13 -3 30 3 41 14 11 10 15
18 9 18 -6 0 -18 3 -27 6 -9 4 -16 1 -16 -6z"/>
<path d="M673 269 c3 -22 8 -43 11 -46 13 -13 18 8 11 46 -9 54 -29 54 -22 0z"/>
</g>
</svg>
